<?xml version="1.0" encoding="UTF-8"?>
<svg width="30px" height="30px" viewBox="0 0 30 30" version="1.1" xmlns="http://www.w3.org/2000/svg" xmlns:xlink="http://www.w3.org/1999/xlink">
    <!-- Generator: Sketch 52.2 (67145) - http://www.bohemiancoding.com/sketch -->
    <title>logo_product_beats_30</title>
    <desc>Created with Sketch.</desc>
    <g id="logo_product_beats_30" stroke="none" stroke-width="1" fill="none" fill-rule="evenodd">
        <g id="Group-8" transform="translate(3.000000, 0.000000)">
            <path d="M10.5,19 L0,19 L0,0 L10.5,0 C15.747,0 20,4.253 20,9.5 C20,14.747 15.747,19 10.5,19" id="Fill-1" fill="#0077CC"></path>
            <path d="M19.5273,12.4492 C18.0683,11.5362 16.3483,11.0002 14.5003,11.0002 L0.0003,11.0002 L0.0003,19.0002 L10.5003,19.0002 C14.7153,19.0002 18.2853,16.2512 19.5273,12.4492" id="Fill-3" fill="#343741"></path>
            <path d="M21.915,14.5703 C19.966,18.9413 15.587,22.0003 10.5,22.0003 L0,22.0003 L0,30.0003 L14.5,30.0003 C19.747,30.0003 24,25.7473 24,20.5003 C24,18.2553 23.217,16.1963 21.915,14.5703" id="Fill-5" fill="#00BFB3"></path>
        </g>
    </g>
</svg>